/* XPM */
static char *num8[] = {
/* columns rows colors chars-per-pixel */
"16 32 2 1 ",
"  c black",
". c white",
/* pixels */
"                ",
"                ",
"                ",
"                ",
"                ",
"                ",
"                ",
"                ",
"                ",
"                ",
"   ..........   ",
"   ..........   ",
"   ..........   ",
"...          ...",
"...          ...",
"...          ...",
"   ..........   ",
"   ..........   ",
"   ..........   ",
"                ",
"...          ...",
"...          ...",
"...          ...",
"   ..........   ",
"   ..........   ",
"   ..........   ",
"                ",
"                ",
"                ",
"                ",
"                ",
"                "
};
